<?xml version="1.0" encoding="utf-8"?>
<!-- Generator: Adobe Illustrator 23.0.3, SVG Export Plug-In . SVG Version: 6.00 Build 0)  -->
<svg version="1.1" xmlns="http://www.w3.org/2000/svg" xmlns:xlink="http://www.w3.org/1999/xlink" x="0px" y="0px"
	 viewBox="0 0 892.6 758.6" style="enable-background:new 0 0 892.6 758.6;" xml:space="preserve">
<style type="text/css">
	.st0{fill:#FFFFFF;}
	.st1{font-family:'RobotoCondensed-Light';}
	.st2{font-size:14.6339px;}
	.st3{font-size:14.6342px;}
	.st4{fill:#24B865;stroke:#FFFFFF;}
	.st5{fill:none;stroke:#FFFFFF;}
	.st6{fill:#FFFFFF;stroke:#000000;stroke-width:2;stroke-miterlimit:10;}
</style>
<g id="SEÑALES">
	<path class="st0" d="M588.8,247.6c0,0,4.1-2.7,5.1-2.6s4.1-2,5.4-2.5s3.4,2.5,3.4,2.5l-0.6,5l-3.3,8.6l-5-3.1l-2.4-2.5
		c0,0-0.5,3.6-1.1,4.4c-0.5,0.7-3.6,2.8-3.6,2.8s-3.6-9.3-4.1-12.3c-0.5-2.9-2.3-5.5-2.3-5.5s-0.9,2.8-2,3.1c-1.1,0.3-4.6-3-4.9-2
		s-0.4,3.3-0.4,3.3l-2,1.7l1.8,3.4l-2.3,9.9l-4.2,2.4l-2.7-0.5l-4.1,6.9l2.2,2.8l-0.1,5.3l1.4,1.5c0,0-0.5,5.2-1.2,7.3
		s-4.4,8.3-4.4,8.3l-4.9-0.5l0.6,3.9c0,0,1.4,1.5,2.3,1.8c0.9,0.3,2-1.1,2-1.1s1.8-0.6,2.8,0.2c1,0.8,3,4.4,3,4.4l-0.7,15.5
		c0,0-3,3.5-3.3,6c-0.3,2.5-3.3,13.9-3.3,13.9l-6.3,10.5c0,0-3.9,8.9-4.2,9.5s-0.8,6-0.8,6l-2.8,7.3l-8.4,5.5l-9,6.5l-3.5,9.3
		l-5.7,7.5c0,0-5.8,5.2-7.4,6.1c-1.6,1-6.1,0.8-6.7,1.7c-0.6,0.9-2,3.1-3.7,4.3s-11.4,4.9-12.3,5c-1,0.1-4.7-0.1-4.8,1.9
		c-0.1,2,2.5,4.8-2.3,5.4c-4.8,0.6-10.5-1.5-10.5-1.5s-1.8-1.2-1.1-2.4c0.7-1.2,1.6-4.8,1.6-4.8l0.3-3.8l-1.3,1.2l-2.8-0.5l0,0
		l-1.7,0.6l1.6-6.2c0,0,2.9,1.9,3.2,1.6c0.3-0.3,3-4.7,4.4-4.6c1.3,0.1,3.1-1.2,3.1-1.2l0.1-4.2l2.8-0.6c0,0,0.1-1.9-0.4-2.6
		c-0.5-0.7-5.1,0.4-5.1,0.4l-6.7,3.4l-5.2,1.4l-2.5,3.4l-1.6,4.1l1.6,3.1l1.2,5.1l-0.6,6.2l-8.8,14l-7.3,7.2c0,0-2,1-2.7,1.2
		c-0.7,0.2-3.3,5.3-3.3,5.3l-2.8,4.7l1.5,4.9l3.9,7.5l-2.3,1.5l-0.8-3.1c0,0-2.6-0.1-2.6,0.6s-0.5,4.2-0.5,4.2l-3.8-1.2l-1.4,3.9
		l-1.9-0.9c0,0,1.4,3-0.7,3s-3.6,0.8-3.2-0.1c0.4-0.9,3.4-2.5-0.1-1.8c-3.4,0.7-5.9,2.4-6,1.6c-0.1-0.7,0-2.8,0-2.8s0.6,3.2-2.8,2.2
		s-3.5-2.7-3.5-2.7s4.2-4.1,3.5-4.5c-0.7-0.4-1.3-3.5-2.8-3c-1.5,0.4-10.4,6.2-10.4,6.2s-1.3-2.1-2.8-2c-1.4,0.1-7.3,0.3-7.3,0.3
		s-1.7-0.3-2.5,0.1s-4.7,3.1-7.5,3.8c-2.8,0.7-7.4,1.4-7.9,1.3c-0.5-0.1-7.2,0.6-7.2,0.6l-6.4-0.9l-4.7,1.6c0,0-3.6,1.2-4.3,0.7
		c-0.7-0.5-1.3-3.1-1.3-3.1l2-0.6c0,0-0.3-0.5-1.8-0.4c-1.5,0.1-4.3,0-4.3,0l-2.3-0.2c0,0-0.3,1.1-0.8,1.2c-0.5,0.1-1.4,0.4-1.4,0.4
		s0.5,1.2-1.1,1.2s-6,1.3-6,1.3l-0.6,1.2l-3.6,0.4l0.5,4.3l-3.6,2.7l-4.4,3.9l-2.8,3.4l-5.4,4.3l-8.2,8l-9.2,4.1l-5.9,4.4
		c0,0,0.6,4.9-1,5c-1.6,0.1-4.2-0.3-4.2-0.3l-5.5,1.2c0,0-2.9-1.6-3.2-1.9s-2.3,2.7-2.3,2.7l-0.2,4.2c0,0,3.2,1.3,2,2
		c-1.2,0.7-2.3,5.2-2.3,5.2l0.7,3.7l5.5-2.5c0,0,2.4,4.4,4.5,4c2.1-0.4,4.9-4.4,4.9-4.4l1.8,2.5c0,0,1-3.1,1.1-2.1
		c0.1,1,1.2,1.7,2.7,1.2c1.5-0.5,7.5-1.5,7.5-1.5l7.6,3.4l3.6,4.3c0,0,0.3-1.6,0.9-2.8c0.6-1.2,0.4-7.6,0.4-7.6l1.2-5.3
		c0,0,3.5-3.7,5.5-3.7s3.3,5.2,3.9,4.9c0.6-0.4,6.4-0.3,6.7-0.4c0.3-0.1,5.6-3.6,6-3.5c0.4,0.2,6.2-2,6.2-2l3.2-1l3.6,1.9l3.7-3.4
		l8.2-1.6l3.7,2.2l6.6-6.3l6.7-4.6c0,0,11.4-2.2,11.9-2s8.8,2.8,8.8,2.8l7.7,2l5.3-2.8l3.4,4.4c0,0-2.8,6.9-3.5,7.5
		c-0.6,0.6-6.5,3.7-6.5,3.7s2.6,4,2.8,5.2c0.2,1.2-1.2,0.7-1.2,2.5c-0.1,1.8-2.3,8.3-1.8,8.4c0.5,0.1,9.7,7.1,9.7,7.1s4,7.1,5.4,7.2
		c1.4,0.1,12.3-1.9,12.5-2.9s3.2-8.9,4-10c0.8-1.2,6-3.8,6.2-5c0.3-1.2-1.8-3-1.8-3s3.5-5.5,3.5-5.1c0,0.4,9.8-4.4,10.7-4.2
		c1,0.2,9-1.5,9-1.5s2.1-1.4-2.5-4.5c-4.6-3.1-10.7-8.5-10.7-8.5s3.5-6.7,3.8-8.4c0.4-1.7,0.4-4.3,1.6-4.7c1.2-0.4,5.9-1.6,5.9-1.9
		c0-0.3-2,7.5-2,7.5l1.2,2.3c0,0-1.2,2.6,0.7,3.5c2,0.9,2.6,1.3,2.8,1.1c0.2-0.3-1.3-6.5-1.3-6.5l1.4-1.7c0,0,3.6,4.6,4.2,4.7
		c0.5,0.1,3.6-0.7,4.5-0.6c0.9,0.1,3,2.8,3,2.8s-2,0.2-3.4,1.3s-4,2.2-4,2.2l-1.1-0.7l-1.8,3.1l13.2-3.3l11.6,0.7l12.5,1.8
		c0,0-0.6-0.9,0-2.4c0.6-1.5,4.5-6.4,4.5-6.4s1.1-5.2,4.4-5.1s-0.4-4.4,2.4-5.2c2.8-0.8,5.9-2.4,7.7-1c1.9,1.4,3.4,2.8,3.4,2.8
		l-3,1.1l-1.3,6.7c0,0,1.3,8.3,1.6,8.5c0.3,0.3,2.6,1.4,5.5-1.2s4.5-7.5,4.8-9.1s-1.1-2.5-1.6-4.4c-0.5-1.9,0.4-3.6,1.1-5.6
		c0.6-2,4.6-5.7,4.6-5.7l9.6,1.1c0,0,1,5.1,1.9,5c0.9-0.1,1.3-0.5,1.8-2.8s-1.4-6.1-1.2-7.6s0.5-2.7,1.8-2.8c1.2-0.1-3,3.5,2.9-2.2
		s0,0,0,0s-1.5-1.3-0.7-2.4c0.8-1.1,2.8-1.5,3.9-0.8s2.8-1.9,2.8-1.9s4.8,4.6,4.1,4.7c-0.7,0.1-6,5-6.5,6c-0.4,1-1.9,4.4-1.9,4.4
		s-0.4-0.7-0.5,2.7c-0.2,3.4-4.1,3.9-3.3,6.4s0.3,2.1,1.7,3.3c1.4,1.2,3.5,3.6,4.6,1.8c1.2-1.8,3.6-5.8,5.4-6.9s2.8-0.4,5.1-1.7
		c2.2-1.2,2.8-7.2,2.8-7.9s1.4-3.2,1.4-3.2s4.3-7.5,5.2-8.2c1-0.7,9.6-3.3,9.6-3.3l-6.6-10.9l-2.6-12.4c0,0,2.1-8.1,2.4-9.1
		c0.3-1.1,6.1-14.4,6.1-14.4l4.1-2.5c0,0,1.5-9.1,1.9-13.5s-1.1-18.4-1.1-18.4s-2-9.3-2-11.1c0-1.8,1.5-5.8,2-7.5
		c0.5-1.8,1.8-3.4,1.8-3.4l0.4-2.7l2.2-0.4l1.2,1.2c0,0,1.5-2.8,3-2.6c1.5,0.3,3.6,0.5,5.1,0.5c1.5,0,2.5,4.9,2.8,4.9
		s1.3,1.5,0.8-0.9c-0.5-2.4-1.2-3-1.3-4.4s-0.6-0.8-0.2-2.5s2.2-1.5,0.9-3c-1.3-1.5-2.3-4.1-2.3-4.1s-0.5-0.8,1.7-1.8
		c2.2-1,2.2-2.1,2.2-2.1s0.2-4.1,0.6-5.2c0.4-1.1,1.7-1.4,1.7-1.4s0.5,0.8,2.8-2.1c2.3-2.9,4.8-5.3,4.8-5.3l-1.3-2.5
		c0,0,4.4-2.3,3.7-3.1c-0.7-0.8-2.5-0.4-2.3-1.9c0.2-1.4,2.6-4.5,2.6-4.5l0.3-11.8c0,0-0.6-9.6-0.8-11.7s-3.3-3.9-3.5-5.2
		c-0.2-1.3,0.6-0.4,0.3-2.3c-0.4-2-1.2-3.5-1.2-3.5s3.1-1.9,2.2-3.2c-0.9-1.3-9.4-10.2-9.4-10.2l-4.6-6.6c0,0-1.3-17.1-1.2-19
		c0.1-1.9,2.2-11.9,2.2-11.9l-6.9,2.4l-8.6-5.8l-2.2-0.4l-2,3.9L588.8,247.6"/>
	<path class="st0" d="M618.6,101.3c-0.1-1.5,1.5-6.2,0.7-9.9c-0.8-3.6-5-15.9-5-15.9s-1.9-3.6-1.9-5.2c0-1.5,4.4-9.1,4.4-9.1
		l7.6-5.2c0,0,17.9,17.2,17.7,21.4c-0.3,4.2,18.4,24.1,20.9,25.5c2.5,1.4,34.9,17.7,34.9,17.7l6.1,6l9.9,0.4l17.6-17.9l1.6,3.2
		l-8.6,18.9l3.4,10.3l8.5,14.1l9.1-5.2l-8.3,10.3l-9.4,0.8l-6.2,5.6l-6.1-1l-2.6,3.4c0,0,5.6,4.4,2.1,4.4s-7-2-11.6-4.1
		c-4.6-2-12.7,0.7-12.7,0.7l-22.5,27.8c0,0,3.8,15.7,0,15.4s-48-32.4-53.1-30.6c-5.1,1.8-10.6,15.8-19.7,13.2
		c-9.1-2.6-6.6-11-10.8-10.6s-8.3,0-9.9,3c-1.7,3-5.6,7.4-3.4,9.8c2.2,2.4,6.1,8,10.4,7.5c4.3-0.5,7.4,5.7,10.7,7.5s10.8,2,7.3,5.2
		c-3.6,3.1-0.2,7-7.3,3.9s-8.9-4.3-8.9-4.3s-6.3,9.8-7.2,11.3c-0.9,1.5-8,4.9-9.7,5.2c-1.7,0.3-4.4-7.9-3.8-9.7
		c0.5-1.8,4.9-11.2,3.7-13.6s-3.5-1-4.4-6.3c-0.8-5.3-4.5-16.3-4.8-18.2s7.8-9.8,10.2-10.3c2.4-0.5,6.8-4,6.8-4s5.6-2.1,4.9-4.9
		c-0.7-2.8-5.8-12.4-5.8-12.4s1.2-5.3,3.9-3.9c2.8,1.4,14.6,9.3,14.6,9.3s1,5.7,7.6,0.2s10.1-7.7,8.3-11.5c-1.8-3.7-1.2-4.6-2-9.3
		c-0.8-4.7,0.8-15.4,3.4-15.4c2.6,0,6.2,2.9,6.1-4.4c-0.1-7.4,1.2-12.6,1.3-13.7C616.9,106.1,618.6,101.3,618.6,101.3z"/>
	<g id="texts_2_">
		<g>
			<text transform="matrix(1 0 0 1 693.0044 321.8437)" class="st0 st1 st2">Kamaishi Recovery</text>
			<text transform="matrix(1 0 0 1 693.0044 340.1352)" class="st0 st1 st2">Memorial Stadium</text>
			<text transform="matrix(0.9999 -1.545566e-02 1.545566e-02 0.9999 476.2552 306.4852)" class="st0 st1 st3">Kumagaya</text>
			<text transform="matrix(0.9999 -1.545566e-02 1.545566e-02 0.9999 458.044 325.3129)" class="st0 st1 st3"> Rugby Stadium</text>
			<text transform="matrix(1 0 0 1 617.1025 482.4906)" class="st0 st1 st2">Tokyo Stadium</text>
			<text transform="matrix(1 0 0 1 625.7197 553.517)" class="st0 st1 st2">International </text>
			<text transform="matrix(1 0 0 1 625.7197 571.81)" class="st0 st1 st2">Stadium Yokohama</text>
			<text transform="matrix(1 0 0 1 298.399 442.2465)" class="st0 st1 st2">Kobe Misaki</text>
			<text transform="matrix(1 0 0 1 318.75 460.5375)" class="st0 st1 st2">Stadium</text>
			<text transform="matrix(1 0 0 1 415.3887 363.6879)" class="st0 st1 st2">City of Toyota</text>
			<text transform="matrix(1 0 0 1 441.4004 381.9789)" class="st0 st1 st2">Stadium</text>
			<text transform="matrix(1 0 0 1 92.1016 550.726)" class="st0 st1 st2">Fukuoka</text>
			<text transform="matrix(1 0 0 1 65.3027 569.02)" class="st0 st1 st2">Hakatanomori</text>
			<text transform="matrix(1 0 0 1 92.1016 587.312)" class="st0 st1 st2">Stadium</text>
			<text transform="matrix(1 0 0 1 145.7388 654.4448)" class="st0 st1 st2">Kumamoto</text>
			<text transform="matrix(1 0 0 1 156.6768 672.7387)" class="st0 st1 st2">Stadium</text>
			<text transform="matrix(1 0 0 1 447.4619 166.9208)" class="st0 st1 st2">Sapporo Dome</text>
			<text transform="matrix(1 0 0 1 282.2564 692.8598)" class="st0 st1 st2">Oita Stadium</text>
			<text transform="matrix(1 0 0 1 376.92 600.9614)" class="st0 st1 st2">Hanazono</text>
			<text transform="matrix(1 0 0 1 396.5567 618.8998)" class="st0 st1 st2">Rugby</text>
			<text transform="matrix(1 0 0 1 387.0987 637.5463)" class="st0 st1 st2">Stadium</text>
			<text transform="matrix(1 0 0 1 489.6563 582.3803)" class="st0 st1 st2">Shizuoka </text>
			<text transform="matrix(1 0 0 1 489.6563 600.6733)" class="st0 st1 st2">Stadium</text>
		</g>
		<g>
			<rect x="551.3" y="480.7" class="st4" width="58.6" height="1.2"/>
			<rect x="627.4" y="319.9" class="st4" width="56.2" height="1.2"/>
			<rect x="157.4" y="568.7" class="st4" width="79" height="1.2"/>
			<rect x="543.5" y="165.3" class="st4" width="48.4" height="1.2"/>
			<g>
				<polygon class="st4" points="287.6,593.5 288,679.4 286.8,679.4 286.4,593.5 				"/>
				<g>
					<polygon class="st4" points="465.7,389.4 466,495.2 464.8,495.2 464.5,389.4 					"/>
				</g>
				<g>
					<polygon class="st4" points="412.7,524.8 413.1,588.3 411.9,588.3 411.5,524.8 					"/>
				</g>
			</g>
			<g>
				<line class="st5" x1="434.1" y1="429.3" x2="434.1" y2="430.5"/>
			</g>
			<path class="st4" d="M252.7,598.2c-26.2-6.4-53.8,13.8-61.5,45.2l-1.6,0.4c8-32.6,36.6-53.5,63.7-46.8L252.7,598.2z"/>
			<path class="st4" d="M544.6,487.7c12,49.8,49.9,59.5,73.6,61.7l-0.2,1.6c-24.6-2.2-63.7-12-75.1-63.3L544.6,487.7z"/>
			<path class="st4" d="M396.8,509.3c3-23.6-13.7-45.2-37.3-48.1l0.2-1.6c24.5,3.1,41.9,25.4,38.8,49.9L396.8,509.3z"/>
			<g>
				<polygon class="st4" points="529.6,331.2 530,444.3 528.8,444.3 528.4,331.2 				"/>
			</g>
			<g>
				<polygon class="st4" points="490.6,523 490.9,565.8 489.7,565.8 489.4,523 				"/>
			</g>
		</g>
	</g>
</g>
<g id="Puntos">
	<circle class="st6" cx="530" cy="442.3" r="6.4"/>
	<circle class="st6" cx="557.2" cy="481.8" r="6.4"/>
	<circle class="st6" cx="546" cy="487.7" r="6.4"/>
	<circle class="st6" cx="465.4" cy="494.2" r="6.4"/>
	<circle class="st6" cx="490.9" cy="519.4" r="6.4"/>
	<circle class="st6" cx="229.7" cy="569.1" r="6.4"/>
	<circle class="st6" cx="591.9" cy="166.5" r="6.4"/>
	<circle class="st6" cx="625.1" cy="321.1" r="6.4"/>
	<circle class="st6" cx="398.3" cy="513" r="6.4"/>
	<circle class="st6" cx="413.1" cy="525.8" r="6.4"/>
	<circle class="st6" cx="288" cy="632.6" r="6.4"/>
	<circle class="st6" cx="252.7" cy="598.1" r="6.4"/>
</g>
</svg>
